<svg width="15" height="15" viewBox="0 0 15 15" fill="none" xmlns="http://www.w3.org/2000/svg">
<path d="M13.4697 0.46967C13.7626 0.176777 14.2374 0.176777 14.5303 0.46967C14.8232 0.762563 14.8232 1.23744 14.5303 1.53033L13.4697 0.46967ZM1.53033 14.5303C1.23744 14.8232 0.762562 14.8232 0.469669 14.5303C0.176776 14.2374 0.176776 13.7626 0.469669 13.4697L1.53033 14.5303ZM0.469669 1.53033C0.176776 1.23744 0.176776 0.762563 0.469669 0.46967C0.762562 0.176777 1.23744 0.176777 1.53033 0.46967L0.469669 1.53033ZM14.5303 13.4697C14.8232 13.7626 14.8232 14.2374 14.5303 14.5303C14.2374 14.8232 13.7626 14.8232 13.4697 14.5303L14.5303 13.4697ZM14.5303 1.53033L8.03033 8.03033L6.96967 6.96967L13.4697 0.46967L14.5303 1.53033ZM8.03033 8.03033L1.53033 14.5303L0.469669 13.4697L6.96967 6.96967L8.03033 8.03033ZM1.53033 0.46967L8.03033 6.96967L6.96967 8.03033L0.469669 1.53033L1.53033 0.46967ZM8.03033 6.96967L14.5303 13.4697L13.4697 14.5303L6.96967 8.03033L8.03033 6.96967Z" fill="black"/>
</svg>
