<svg width="17" height="20" viewBox="0 0 17 20" fill="none" xmlns="http://www.w3.org/2000/svg">
<path fill-rule="evenodd" clip-rule="evenodd" d="M4.12104 1.11111C4.44203 0.454181 5.13074 0 5.92857 0H11.0714C11.8693 0 12.558 0.454181 12.879 1.11111H13.3571C15.0929 1.11111 16.5 2.47913 16.5 4.16667V16.9444C16.5 18.632 15.0929 20 13.3571 20H3.64286C1.90711 20 0.5 18.632 0.5 16.9444V4.16667C0.5 2.47913 1.90711 1.11111 3.64286 1.11111H4.12104ZM3.92857 2.77778H3.64286C2.85388 2.77778 2.21429 3.3996 2.21429 4.16667V16.9444C2.21429 17.7115 2.85388 18.3333 3.64286 18.3333H13.3571C14.1461 18.3333 14.7857 17.7115 14.7857 16.9444V4.16667C14.7857 3.3996 14.1461 2.77778 13.3571 2.77778H13.0714V3.61111C13.0714 4.07135 12.6877 4.44444 12.2143 4.44444H4.78571C4.31233 4.44444 3.92857 4.07135 3.92857 3.61111V2.77778ZM11.3571 2.77778V1.94444C11.3571 1.79103 11.2292 1.66667 11.0714 1.66667H5.92857C5.77078 1.66667 5.64286 1.79103 5.64286 1.94444V2.77778H11.3571ZM3.92857 8.05556C3.92857 7.59532 4.31233 7.22222 4.78571 7.22222H12.2143C12.6877 7.22222 13.0714 7.59532 13.0714 8.05556C13.0714 8.51579 12.6877 8.88889 12.2143 8.88889H4.78571C4.31233 8.88889 3.92857 8.51579 3.92857 8.05556ZM3.92857 11.3889C3.92857 10.9287 4.31233 10.5556 4.78571 10.5556H12.2143C12.6877 10.5556 13.0714 10.9287 13.0714 11.3889C13.0714 11.8491 12.6877 12.2222 12.2143 12.2222H4.78571C4.31233 12.2222 3.92857 11.8491 3.92857 11.3889ZM3.92857 14.7222C3.92857 14.262 4.31233 13.8889 4.78571 13.8889H8.71849C9.19187 13.8889 9.57563 14.262 9.57563 14.7222C9.57563 15.1825 9.19187 15.5556 8.71849 15.5556H4.78571C4.31233 15.5556 3.92857 15.1825 3.92857 14.7222Z" fill="#333333"/>
</svg>
