<svg width="12" height="18" viewBox="0 0 12 18" fill="none" xmlns="http://www.w3.org/2000/svg">
<path d="M1.00813 0L0.052984 7.07272C-0.203982 8.97552 0.496921 10.6102 1.65304 11.7418C2.59303 12.6619 3.83815 13.2587 5.14924 13.4409V16.2H0.895231V18H11.1048V16.2H6.85083V13.4409C8.16191 13.2587 9.40697 12.6619 10.347 11.7418C11.5031 10.6102 12.204 8.97552 11.947 7.07272L10.9919 0H1.00813ZM4.29827 4.5C3.59131 4.50012 2.73458 4.7182 2.06146 4.92821L2.48392 1.8H9.51613L9.93319 4.88826C9.21971 5.13622 8.45816 5.4 7.70163 5.4C6.51715 5.4 5.51262 4.4998 4.29827 4.5Z" fill="white"/>
</svg>
