<svg width="22" height="15" viewBox="0 0 22 15" fill="none" xmlns="http://www.w3.org/2000/svg">
<path d="M4.28571 5.35878C4.87745 5.35878 5.35714 4.87872 5.35714 4.28653C5.35714 3.69435 4.87745 3.21429 4.28571 3.21429C3.69398 3.21429 3.21429 3.69435 3.21429 4.28653C3.21429 4.87872 3.69398 5.35878 4.28571 5.35878Z" fill="black"/>
<path d="M5.35714 7.49997C5.35714 8.09215 4.87745 8.57222 4.28571 8.57222C3.69398 8.57222 3.21429 8.09215 3.21429 7.49997C3.21429 6.90778 3.69398 6.42772 4.28571 6.42772C4.87745 6.42772 5.35714 6.90778 5.35714 7.49997Z" fill="black"/>
<path d="M4.28571 11.7857C4.87745 11.7857 5.35714 11.3056 5.35714 10.7134C5.35714 10.1212 4.87745 9.64116 4.28571 9.64116C3.69398 9.64116 3.21429 10.1212 3.21429 10.7134C3.21429 11.3056 3.69398 11.7857 4.28571 11.7857Z" fill="black"/>
<path d="M8.57143 4.28653C8.57143 4.87872 8.09173 5.35878 7.5 5.35878C6.90827 5.35878 6.42857 4.87872 6.42857 4.28653C6.42857 3.69435 6.90827 3.21429 7.5 3.21429C8.09173 3.21429 8.57143 3.69435 8.57143 4.28653Z" fill="black"/>
<path d="M7.5 8.57222C8.09173 8.57222 8.57143 8.09215 8.57143 7.49997C8.57143 6.90778 8.09173 6.42772 7.5 6.42772C6.90827 6.42772 6.42857 6.90778 6.42857 7.49997C6.42857 8.09215 6.90827 8.57222 7.5 8.57222Z" fill="black"/>
<path d="M11.7857 4.28653C11.7857 4.87872 11.306 5.35878 10.7143 5.35878C10.1226 5.35878 9.64286 4.87872 9.64286 4.28653C9.64286 3.69435 10.1226 3.21429 10.7143 3.21429C11.306 3.21429 11.7857 3.69435 11.7857 4.28653Z" fill="black"/>
<path d="M10.7143 8.57222C11.306 8.57222 11.7857 8.09215 11.7857 7.49997C11.7857 6.90778 11.306 6.42772 10.7143 6.42772C10.1226 6.42772 9.64286 6.90778 9.64286 7.49997C9.64286 8.09215 10.1226 8.57222 10.7143 8.57222Z" fill="black"/>
<path d="M15 4.28653C15 4.87872 14.5203 5.35878 13.9286 5.35878C13.3368 5.35878 12.8571 4.87872 12.8571 4.28653C12.8571 3.69435 13.3368 3.21429 13.9286 3.21429C14.5203 3.21429 15 3.69435 15 4.28653Z" fill="black"/>
<path d="M13.9286 8.57222C14.5203 8.57222 15 8.09215 15 7.49997C15 6.90778 14.5203 6.42772 13.9286 6.42772C13.3368 6.42772 12.8571 6.90778 12.8571 7.49997C12.8571 8.09215 13.3368 8.57222 13.9286 8.57222Z" fill="black"/>
<path d="M18.2143 4.28653C18.2143 4.87872 17.7346 5.35878 17.1429 5.35878C16.5511 5.35878 16.0714 4.87872 16.0714 4.28653C16.0714 3.69435 16.5511 3.21429 17.1429 3.21429C17.7346 3.21429 18.2143 3.69435 18.2143 4.28653Z" fill="black"/>
<path d="M17.1429 8.57222C17.7346 8.57222 18.2143 8.09215 18.2143 7.49997C18.2143 6.90778 17.7346 6.42772 17.1429 6.42772C16.5511 6.42772 16.0714 6.90778 16.0714 7.49997C16.0714 8.09215 16.5511 8.57222 17.1429 8.57222Z" fill="black"/>
<path d="M18.2143 10.7134C18.2143 11.3056 17.7346 11.7857 17.1429 11.7857C16.5511 11.7857 16.0714 11.3056 16.0714 10.7134C16.0714 10.1212 16.5511 9.64116 17.1429 9.64116C17.7346 9.64116 18.2143 10.1212 18.2143 10.7134Z" fill="black"/>
<path d="M7.5 9.64201C6.90827 9.64201 6.42857 10.1217 6.42857 10.7134C6.42857 11.3052 6.90827 11.7849 7.5 11.7849H13.9286C14.5203 11.7849 15 11.3052 15 10.7134C15 10.1217 14.5203 9.64201 13.9286 9.64201H7.5Z" fill="black"/>
<path fill-rule="evenodd" clip-rule="evenodd" d="M2.94643 0C1.31916 0 0 1.31916 0 2.94643V12.0536C0 13.6808 1.31916 15 2.94643 15H18.4821C20.1094 15 21.4286 13.6808 21.4286 12.0536V2.94643C21.4286 1.31916 20.1094 0 18.4821 0H2.94643ZM1.60714 2.94643C1.60714 2.20676 2.20676 1.60714 2.94643 1.60714H18.4821C19.2218 1.60714 19.8214 2.20676 19.8214 2.94643V12.0536C19.8214 12.7932 19.2218 13.3929 18.4821 13.3929H2.94643C2.20676 13.3929 1.60714 12.7932 1.60714 12.0536V2.94643Z" fill="black"/>
</svg>
