<svg width="17" height="18" viewBox="0 0 17 18" fill="none" xmlns="http://www.w3.org/2000/svg">
<path fill-rule="evenodd" clip-rule="evenodd" d="M11.9286 2.25C11.9286 1.00736 12.9519 0 14.2143 0C15.4767 0 16.5 1.00736 16.5 2.25V15.75C16.5 16.9926 15.4767 18 14.2143 18C12.9519 18 11.9286 16.9926 11.9286 15.75V2.25ZM14.2143 1.6875C13.8987 1.6875 13.6429 1.93934 13.6429 2.25V15.75C13.6429 16.0607 13.8987 16.3125 14.2143 16.3125C14.5299 16.3125 14.7857 16.0607 14.7857 15.75V2.25C14.7857 1.93934 14.5299 1.6875 14.2143 1.6875ZM6.21429 7.875C6.21429 6.63236 7.23764 5.625 8.5 5.625C9.76237 5.625 10.7857 6.63236 10.7857 7.875V15.75C10.7857 16.9926 9.76237 18 8.5 18C7.23764 18 6.21429 16.9926 6.21429 15.75V7.875ZM8.5 7.3125C8.18441 7.3125 7.92857 7.56434 7.92857 7.875V15.75C7.92857 16.0607 8.18441 16.3125 8.5 16.3125C8.81559 16.3125 9.07143 16.0607 9.07143 15.75V7.875C9.07143 7.56434 8.81559 7.3125 8.5 7.3125ZM0.5 13.5C0.5 12.2574 1.52335 11.25 2.78571 11.25C4.04808 11.25 5.07143 12.2574 5.07143 13.5V15.75C5.07143 16.9926 4.04808 18 2.78571 18C1.52335 18 0.5 16.9926 0.5 15.75V13.5ZM2.78571 12.9375C2.47012 12.9375 2.21429 13.1893 2.21429 13.5V15.75C2.21429 16.0607 2.47012 16.3125 2.78571 16.3125C3.10131 16.3125 3.35714 16.0607 3.35714 15.75V13.5C3.35714 13.1893 3.10131 12.9375 2.78571 12.9375Z" fill="#333333"/>
</svg>
