<svg width="19" height="20" viewBox="0 0 19 20" fill="none" xmlns="http://www.w3.org/2000/svg">
<path d="M0 19V8.85931C0 8.00085 0.393105 7.18965 1.0669 6.65771L7.7619 1.37219C8.78098 0.567648 10.219 0.567646 11.2381 1.37218L17.9331 6.65771C18.6069 7.18965 19 8.00085 19 8.85931V19C19 19.5523 18.5523 20 18 20H13.4167C13.0025 20 12.6667 19.6642 12.6667 19.25V15.5695C12.6667 15.1935 12.6061 14.8133 12.41 14.4943C12.1536 14.0769 11.8114 13.7176 11.4043 13.4422C10.8406 13.0607 10.1779 12.8571 9.5 12.8571C8.82209 12.8571 8.1594 13.0607 7.59574 13.4422C7.18864 13.7176 6.8464 14.0769 6.58996 14.4943C6.39392 14.8133 6.33333 15.1935 6.33333 15.5695V19.25C6.33333 19.6642 5.99755 20 5.58333 20H1C0.447715 20 0 19.5523 0 19Z" fill="black"/>
</svg>
